<svg xmlns="http://www.w3.org/2000/svg" viewBox="0 0 32 32">
  <rect width="32" height="32" rx="8" fill="#0a1f0d"/>
  <path d="M27.78 8.82a7.33 7.33 0 00-10.37 0L16 10.23l-1.41-1.41a7.33 7.33 0 00-10.37 10.37l1.41 1.41L16 31.3l10.37-10.7 1.41-1.41a7.33 7.33 0 000-10.37z" fill="#f06878" fill-opacity="0.28"/>
  <path d="M27.78 8.82a7.33 7.33 0 00-10.37 0L16 10.23l-1.41-1.41a7.33 7.33 0 00-10.37 10.37l1.41 1.41L16 31.3l10.37-10.7 1.41-1.41a7.33 7.33 0 000-10.37z" fill="none" stroke="#f06878" stroke-width="2" stroke-linecap="round" stroke-linejoin="round"/>
</svg>
